<svg xmlns="http://www.w3.org/2000/svg" width="25" height="25" fill="none" viewBox="0 0 25 25">
  <path fill="#777" stroke="#777" d="M7.5 9.25H8V7.5a4.5 4.5 0 0 1 9 0v1.75h1.75a.75.75 0 0 1 .746.668l1.25 11.25a.75.75 0 0 1-.187.582l.372.334-.372-.334A.75.75 0 0 1 20 22H5a.75.75 0 0 1-.746-.832l1.25-11.25a.75.75 0 0 1 .746-.668H7.5Zm7.5 0h.5V7.5a3 3 0 1 0-6 0v1.75H15Zm-7.487 4.487.303-.303-.303.303a1.75 1.75 0 1 0 0-2.474l.303.303-.303-.303a1.75 1.75 0 0 0 0 2.474Zm8.737-2.987a1.75 1.75 0 1 0 0 3.5 1.75 1.75 0 0 0 0-3.5Z"/>
</svg>
