<svg width="25" height="25" viewBox="0 0 25 25" fill="none" xmlns="http://www.w3.org/2000/svg">
    <path d="M7.49996 9.25H7.99996V8.75V7.5C7.99996 6.30653 8.47407 5.16193 9.31798 4.31802C10.1619 3.47411 11.3065 3 12.5 3C13.6934 3 14.838 3.47411 15.6819 4.31802C16.5259 5.16193 17 6.30653 17 7.5V8.75V9.25H17.5H18.75H18.75C18.9346 9.24999 19.1128 9.31808 19.2503 9.44125C19.3879 9.56441 19.4752 9.73398 19.4955 9.9175L19.4955 9.91772L20.7455 21.1675C20.7571 21.2723 20.7465 21.3784 20.7143 21.4788C20.6821 21.5793 20.6291 21.6718 20.5588 21.7503C20.4884 21.8289 20.4023 21.8917 20.306 21.9348C20.2097 21.9778 20.1055 22 20 22H20H4.99996H4.99993C4.89447 22 4.7902 21.9778 4.69392 21.9348C4.59764 21.8917 4.51151 21.8289 4.44116 21.7503C4.37081 21.6718 4.31781 21.5793 4.28564 21.4788C4.25349 21.3785 4.24284 21.2725 4.25441 21.1677C4.25441 21.1677 4.25441 21.1676 4.25442 21.1676C4.25442 21.1676 4.25443 21.1675 4.25443 21.1675L5.50441 9.91772L5.50443 9.9175C5.52474 9.73398 5.61203 9.56441 5.74958 9.44125C5.88714 9.31808 6.06529 9.24999 6.24993 9.25H6.24996H7.49996ZM15 9.25H15.5V8.75V7.5C15.5 6.70435 15.1839 5.94129 14.6213 5.37868C14.0587 4.81607 13.2956 4.5 12.5 4.5C11.7043 4.5 10.9413 4.81607 10.3786 5.37868C9.81604 5.94129 9.49996 6.70435 9.49996 7.5V8.75V9.25H9.99996H15ZM7.51253 11.2626C7.18434 11.5908 6.99996 12.0359 6.99996 12.5C6.99996 12.9641 7.18434 13.4092 7.51253 13.7374C7.84072 14.0656 8.28584 14.25 8.74996 14.25C9.21409 14.25 9.65921 14.0656 9.9874 13.7374C10.3156 13.4092 10.5 12.9641 10.5 12.5C10.5 12.0359 10.3156 11.5908 9.9874 11.2626C9.65921 10.9344 9.21409 10.75 8.74996 10.75C8.28584 10.75 7.84072 10.9344 7.51253 11.2626ZM16.25 10.75C15.7858 10.75 15.3407 10.9344 15.0125 11.2626C14.6843 11.5908 14.5 12.0359 14.5 12.5C14.5 12.9641 14.6843 13.4092 15.0125 13.7374C15.3407 14.0656 15.7858 14.25 16.25 14.25C16.7141 14.25 17.1592 14.0656 17.4874 13.7374C17.8156 13.4092 18 12.9641 18 12.5C18 12.0359 17.8156 11.5908 17.4874 11.2626C17.1592 10.9344 16.7141 10.75 16.25 10.75Z" fill="#777777" stroke="#777777"/>
    <circle cx="22" cy="3" r="3" fill="#EC534A"/>
</svg>
