<svg xmlns="http://www.w3.org/2000/svg" width="20" height="20" fill="none" viewBox="0 0 20 20">
  <path fill="#4CBB5E" stroke="#4CBB5E" stroke-width=".2" d="m17.558 14.025-1.725-1.767A2.567 2.567 0 0 0 13 11.783l-.75-.75a5.833 5.833 0 1 0-1.175 1.175l.742.742a2.5 2.5 0 0 0 .441 2.883l1.767 1.767a2.5 2.5 0 0 0 3.533 0 2.5 2.5 0 0 0 0-3.575Zm-7.066-3.534a4.167 4.167 0 1 1-5.885-5.9 4.167 4.167 0 0 1 5.885 5.9Zm5.891 5.892a.832.832 0 0 1-1.183 0l-1.767-1.766a.833.833 0 0 1 0-1.184.834.834 0 0 1 1.184 0l1.766 1.767a.834.834 0 0 1 0 1.183Z"/>
</svg>
